<?xml version="1.0" encoding="UTF-8"?>
<!DOCTYPE svg PUBLIC "-//W3C//DTD SVG 1.1//EN" "http://www.w3.org/Graphics/SVG/1.1/DTD/svg11.dtd">
<svg xmlns="http://www.w3.org/2000/svg" version="1.1" width="1280px" height="720px" style="shape-rendering:geometricPrecision; text-rendering:geometricPrecision; image-rendering:optimizeQuality; fill-rule:evenodd; clip-rule:evenodd" xmlns:xlink="http://www.w3.org/1999/xlink">
<g><path style="opacity:0.991" fill="#020202" d="M 628.5,1.5 C 753.38,0.862034 853.88,49.5287 930,147.5C 991.143,234.197 1011.81,329.863 992,434.5C 968.847,535.039 913.68,612.539 826.5,667C 724.636,725.072 618.636,733.739 508.5,693C 428.063,659.557 366.896,604.724 325,528.5C 279.764,439.21 271.431,346.543 300,250.5C 335.133,148.706 401.633,75.5392 499.5,31C 540.888,13.5592 583.888,3.72588 628.5,1.5 Z"/></g>
<g><path style="opacity:1" fill="#f8f8f8" d="M 617.5,7.5 C 654.687,5.87263 691.353,9.37263 727.5,18C 726.5,19 725.5,20 724.5,21C 695.802,19.8999 667.136,20.5666 638.5,23C 620.364,24.8255 603.03,29.4921 586.5,37C 584,37.1667 581.5,37.3333 579,37.5C 555.891,35.1568 532.724,33.6568 509.5,33C 544.269,18.8166 580.269,10.3166 617.5,7.5 Z"/></g>
<g><path style="opacity:1" fill="#fbfbfb" d="M 731.5,19.5 C 817.501,43.0359 885.501,91.5359 935.5,165C 933.372,168.13 930.872,170.963 928,173.5C 894.173,140.014 855.673,113.181 812.5,93C 805.918,83.7466 798.584,75.0799 790.5,67C 771.697,50.3653 751.364,35.8653 729.5,23.5C 730.63,22.3777 731.297,21.0443 731.5,19.5 Z"/></g>
<g><path style="opacity:1" fill="#fefefe" d="M 495.5,38.5 C 524.941,37.7502 554.274,39.0835 583.5,42.5C 583.97,67.8687 584.804,93.202 586,118.5C 548.1,146.722 512.933,178.222 480.5,213C 449.841,212.531 419.174,212.531 388.5,213C 383.187,213.999 377.854,214.332 372.5,214C 364.449,196.181 357.782,177.848 352.5,159C 389.528,106.16 437.195,65.9938 495.5,38.5 Z"/></g>
<g><path style="opacity:1" fill="#fefefe" d="M 810.5,98.5 C 817.234,99.8626 823.567,102.363 829.5,106C 865.063,125.551 897.229,149.718 926,178.5C 939.304,213.383 949.97,249.049 958,285.5C 959.532,295.484 960.532,305.484 961,315.5C 937.033,337.064 911.2,356.064 883.5,372.5C 849.391,344.932 812.725,321.099 773.5,301C 767.884,277.262 762.384,253.429 757,229.5C 751.184,207.051 744.351,184.884 736.5,163C 746.189,151.644 756.856,141.311 768.5,132C 782.399,120.589 796.399,109.423 810.5,98.5 Z"/></g>
<g><path style="opacity:1" fill="#fefefe" d="M 588.5,122.5 C 629.766,126.53 669.766,136.03 708.5,151C 716.857,154.261 724.69,158.427 732,163.5C 748.067,208.437 759.734,254.437 767,301.5C 728.56,331.639 690.393,362.139 652.5,393C 650.833,393.667 649.167,393.667 647.5,393C 602.117,381.483 557.117,368.65 512.5,354.5C 501.991,308.954 491.991,263.288 482.5,217.5C 515.469,182.847 550.802,151.18 588.5,122.5 Z"/></g>
<g><path style="opacity:1" fill="#fcfcfc" d="M 348.5,163.5 C 354.546,181.627 361.212,199.627 368.5,217.5C 352.229,258.377 339.729,300.377 331,343.5C 329.64,353.126 328.64,362.793 328,372.5C 315.391,385.084 303.724,398.417 293,412.5C 280.121,322.362 298.621,239.362 348.5,163.5 Z"/></g>
<g><path style="opacity:1" fill="#fefefe" d="M 961.5,320.5 C 962.675,320.281 963.675,320.614 964.5,321.5C 977.12,340.407 986.786,360.74 993.5,382.5C 988.686,451.089 966.186,513.089 926,568.5C 911.905,578.049 896.905,586.049 881,592.5C 867.861,568.226 854.694,543.893 841.5,519.5C 863.347,474.456 877.847,427.122 885,377.5C 912.8,361.524 938.3,342.524 961.5,320.5 Z"/></g>
<g><path style="opacity:1" fill="#fefefe" d="M 509.5,358.5 C 556.088,373.249 603.088,386.415 650.5,398C 665.798,441.559 681.298,485.059 697,528.5C 697.667,530.167 697.667,531.833 697,533.5C 668.268,566.239 636.435,595.406 601.5,621C 552.052,614.184 505.052,599.517 460.5,577C 441.839,550.5 429.005,521.334 422,489.5C 419.764,474.521 418.097,459.521 417,444.5C 445.871,413.452 476.705,384.786 509.5,358.5 Z"/></g>
<g><path style="opacity:1" fill="#fdfdfd" d="M 329.5,376.5 C 330.552,376.351 331.552,376.517 332.5,377C 349.868,393.37 367.534,409.37 385.5,425C 394.062,432.196 402.896,439.03 412,445.5C 414.349,493.544 428.516,537.711 454.5,578C 443.61,592.049 432.943,606.216 422.5,620.5C 410.592,615.546 398.925,610.046 387.5,604C 337.865,552.567 306.865,491.4 294.5,420.5C 294.622,418.209 295.455,416.209 297,414.5C 307.669,401.667 318.502,389 329.5,376.5 Z"/></g>
<g><path style="opacity:1" fill="#fefefe" d="M 830.5,522.5 C 833.247,522.187 835.914,522.52 838.5,523.5C 851.676,547.184 864.343,571.184 876.5,595.5C 856.565,622.269 832.898,645.103 805.5,664C 797.833,669 790.167,674 782.5,679C 758.986,687.884 734.653,692.884 709.5,694C 687.288,695.59 665.288,694.256 643.5,690C 640.12,688.629 637.287,686.462 635,683.5C 622.883,665.102 612.716,645.602 604.5,625C 640.277,598.896 672.611,568.896 701.5,535C 731.566,533.973 761.566,531.973 791.5,529C 804.773,527.655 817.773,525.488 830.5,522.5 Z"/></g>
<g><path style="opacity:1" fill="#eeeeee" d="M 399.5,616.5 C 399.56,615.957 399.893,615.624 400.5,615.5C 407.749,619.027 415.083,622.36 422.5,625.5C 437.513,642.348 454.513,656.848 473.5,669C 446.575,654.944 421.908,637.444 399.5,616.5 Z"/></g>
<g><path style="opacity:1" fill="#959595" d="M 753.5,694.5 C 753.158,693.662 752.492,693.328 751.5,693.5C 755.313,692.049 759.313,691.216 763.5,691C 760.148,692.17 756.814,693.336 753.5,694.5 Z"/></g>
<g><path style="opacity:1" fill="#f7f7f7" d="M 751.5,693.5 C 752.492,693.328 753.158,693.662 753.5,694.5C 693.131,713.931 631.798,717.597 569.5,705.5C 574.5,704.833 579.5,704.167 584.5,703.5C 603.186,703.063 621.353,699.73 639,693.5C 662.525,699.104 686.358,700.937 710.5,699C 724.237,697.599 737.903,695.766 751.5,693.5 Z"/></g>
<g><path style="opacity:1" fill="#868686" d="M 584.5,703.5 C 579.5,704.167 574.5,704.833 569.5,705.5C 567.518,705.005 565.518,704.505 563.5,704C 570.492,703.5 577.492,703.334 584.5,703.5 Z"/></g>
</svg>
